<?xml version="1.0" encoding="UTF-8"?>
<svg width="64px" height="64px" viewBox="0 0 64 64" version="1.1" xmlns="http://www.w3.org/2000/svg" xmlns:xlink="http://www.w3.org/1999/xlink">
    <!-- Generator: Sketch 47 (45396) - http://www.bohemiancoding.com/sketch -->
    <title>Mixed Snow and Rain Copy 4</title>
    <desc>Created with Sketch.</desc>
    <defs></defs>
    <g id="Symbols" stroke="none" stroke-width="1" fill="none" fill-rule="evenodd">
        <g id="Mixed-Snow-and-Rain-Copy-4" stroke="#979797">
            <g id="Group-10" transform="translate(0.000000, 3.200000)" stroke-width="3.2" fill="#FFFFFF">
                <path d="M14.7393939,41.885769 C14.6105173,41.8891885 14.4812171,41.8909091 14.3515152,41.8909091 C6.4253922,41.8909091 0,35.4655169 0,27.5393939 C0,19.613271 6.4253922,13.1878788 14.3515152,13.1878788 C15.8871688,13.1878788 17.3664888,13.4290717 18.7536594,13.8756418 C20.7059699,5.91003513 27.8931067,0 36.4606061,0 C46.5289244,0 54.6909091,8.16198468 54.6909091,18.230303 C54.6909091,18.4373147 54.6874587,18.6435205 54.6806122,18.848866 C59.9971372,19.92304 64,24.6213334 64,30.2545455 C64,36.5513314 58.9985451,41.6799649 52.7515152,41.8845662 L52.7515152,41.8909091 L14.7393939,41.8909091 L14.7393939,41.885769 Z" id="Combined-Shape-Copy-3"></path>
            </g>
            <g id="Group-10-Copy" transform="translate(18.000000, 13.000000)" stroke-linecap="round" stroke-width="1.44">
                <g id="Group-8" transform="translate(11.131313, 0.000000)">
                    <polyline id="Rectangle-3" transform="translate(3.326996, 3.503456) rotate(45.000000) translate(-3.326996, -3.503456) " points="5.67043023 1.22916916 5.67043023 5.77774283 0.983561547 5.77774283"></polyline>
                    <polyline id="Rectangle-3-Copy" transform="translate(3.326996, 25.588570) scale(1, -1) rotate(45.000000) translate(-3.326996, -25.588570) " points="5.67043023 23.3142829 5.67043023 27.8628566 0.983561547 27.8628566"></polyline>
                    <path d="M3.36868687,1.86633663 L3.36868687,27.4207921" id="Line"></path>
                </g>
                <g id="Group-8-Copy-3" transform="translate(14.500000, 14.500000) rotate(60.000000) translate(-14.500000, -14.500000) translate(11.131313, 0.000000)">
                    <polyline id="Rectangle-3" transform="translate(3.326996, 3.503456) rotate(45.000000) translate(-3.326996, -3.503456) " points="5.67043023 1.22916916 5.67043023 5.77774283 0.983561547 5.77774283"></polyline>
                    <polyline id="Rectangle-3-Copy" transform="translate(3.326996, 25.588570) scale(1, -1) rotate(45.000000) translate(-3.326996, -25.588570) " points="5.67043023 23.3142829 5.67043023 27.8628566 0.983561547 27.8628566"></polyline>
                    <path d="M3.36868687,1.86633663 L3.36868687,27.4207921" id="Line"></path>
                </g>
                <g id="Group-8-Copy-4" transform="translate(14.500000, 14.500000) rotate(120.000000) translate(-14.500000, -14.500000) translate(11.131313, 0.000000)">
                    <polyline id="Rectangle-3" transform="translate(3.326996, 3.503456) rotate(45.000000) translate(-3.326996, -3.503456) " points="5.67043023 1.22916916 5.67043023 5.77774283 0.983561547 5.77774283"></polyline>
                    <polyline id="Rectangle-3-Copy" transform="translate(3.326996, 25.588570) scale(1, -1) rotate(45.000000) translate(-3.326996, -25.588570) " points="5.67043023 23.3142829 5.67043023 27.8628566 0.983561547 27.8628566"></polyline>
                    <path d="M3.36868687,1.86633663 L3.36868687,27.4207921" id="Line"></path>
                </g>
            </g>
            <path d="M6,60.6969697 L12.2060606,51.1872538" id="Line-Copy-6" stroke-width="3.84" stroke-linecap="round"></path>
            <path d="M17,60.6969697 L23.2060606,51.1872538" id="Line-Copy-7" stroke-width="3.84" stroke-linecap="round"></path>
            <path d="M28,60.6969697 L34.2060606,51.1872538" id="Line-Copy-8" stroke-width="3.84" stroke-linecap="round"></path>
            <path d="M39,60.6969697 L45.2060606,51.1872538" id="Line-Copy-9" stroke-width="3.84" stroke-linecap="round"></path>
            <path d="M50,60.6969697 L56.2060606,51.1872538" id="Line-Copy-10" stroke-width="3.84" stroke-linecap="round"></path>
        </g>
    </g>
</svg>