<?xml version="1.0" encoding="UTF-8"?>
<svg width="64px" height="64px" viewBox="0 0 64 64" version="1.1" xmlns="http://www.w3.org/2000/svg" xmlns:xlink="http://www.w3.org/1999/xlink">
    <!-- Generator: Sketch 47 (45396) - http://www.bohemiancoding.com/sketch -->
    <title>Windy Copy</title>
    <desc>Created with Sketch.</desc>
    <defs></defs>
    <g id="Symbols" stroke="none" stroke-width="1" fill="none" fill-rule="evenodd" stroke-linecap="round">
        <g id="Windy-Copy" stroke="#000000" stroke-width="3.2">
            <g id="Group-2" transform="translate(0.000000, 8.320000)">
                <path d="M0,16.5945003 C21.0599326,16.5945003 33.1328684,16.5945003 36.2188074,16.5945003 C40.8477159,16.5945003 44.0917229,13.0019259 44.0917229,7.68477009 C44.0917229,2.36761433 40.7891243,0.214075654 36.6473243,0.214075654 C32.5055244,0.214075654 28.5459513,5.66346574 31.1892012,9.29820663" id="Path-2"></path>
                <path d="M0.374269006,24.6652967 C34.3252738,24.6652967 52.8437458,24.6652967 55.9296848,24.6652967 C60.5585933,24.6652967 63.8026002,21.8571666 63.8026002,17.4546816 C63.8026002,13.0521966 61.9428297,10.1946903 57.8010298,10.1946903 C53.6592298,10.1946903 51.9237795,13.9992354 51.9237795,17.4546816" id="Path-2-Copy"></path>
                <path d="M0.374269006,47.6033498 C22.9308359,47.6033498 35.7520888,47.6033498 38.8380278,47.6033498 C43.4669363,47.6033498 46.7109433,44.7952196 46.7109433,40.3927347 C46.7109433,35.9902497 44.8511728,33.1327434 40.7093729,33.1327434 C36.5675729,33.1327434 34.8321226,36.9372885 34.8321226,40.3927347" id="Path-2-Copy-2" transform="translate(23.542606, 40.368047) scale(1, -1) translate(-23.542606, -40.368047) "></path>
            </g>
        </g>
    </g>
</svg>